<svg xmlns="http://www.w3.org/2000/svg" id="Layer_1" viewBox="0 0 337.2 68.6">
  <style>
    .st0{fill:#FFFFFF;}
  </style>
  <path d="M.4 1.1h1.9V40h19.6v1.7H.4V1.1zm24.7 20.3C25.1 9.4 34.4.6 45.9.6s20.8 8.8 20.8 20.8-9.3 20.8-20.8 20.8-20.8-8.8-20.8-20.8zm39.6 0c0-10.9-8.1-19-18.8-19s-18.8 8.1-18.8 19 8.1 19 18.8 19 18.8-8.1 18.8-19zM76.1 1.1h9.1c13.6 0 21.5 8.3 21.5 20.3s-7.8 20.3-21.5 20.3h-9.1V1.1zm8.7 38.8c13.2 0 19.8-7.6 19.8-18.6S98 2.8 84.8 2.8H78v37.1h6.8zm28.3-18.5c0-12 9.3-20.8 20.4-20.8 6.8 0 11.7 2.4 15.2 6.3l-1.4 1.3c-3.1-3.5-7.3-5.9-13.8-5.9-10.4 0-18.4 8.1-18.4 19s8.1 19 18.9 19c7.2 0 11.5-2.3 14.4-5V25.1H135v-1.7h15.3v12.7c-4 3.7-8.7 6-16.3 6-11.6.1-20.9-8.6-20.9-20.7zm47.4-20.3h23.4v1.7h-21.5v17.7h19.3v1.7h-19.3V40h22.3v1.7h-24.2V1.1zM237.8 0v45.2h7.7v8.6h-7.7v13.8h-10.3V53.8h-35.8v-1.4L236.8 0h1zm-10.3 23.5l-18.3 21.7h18.3V23.5zM254 34.3C254 10.8 267.6.1 282 .1c14.3 0 28 10.7 28 34.2 0 23.5-13.7 34.2-28 34.2-14.4.1-28-10.6-28-34.2zm45.2 0c0-17.5-7.6-24.8-17.2-24.8s-17.2 7.4-17.2 24.8 7.6 24.8 17.2 24.8 17.2-7.3 17.2-24.8zm27.6-24h-10.5V1h21v66.7h-10.5V10.3zM.6 55.9V68H0V54.3h.1l9.4 12.4V54.6h.5v13.7h-.1L.6 55.9zM16 54.6h.6V68H16V54.6zm5.8 10.6c.8 1.5 2.1 2.3 3.9 2.3 2.1 0 3.4-1.1 3.4-2.8 0-1.6-.9-2.4-2.8-3.4l-1.3-.4c-1.9-.9-2.9-1.7-2.9-3.4 0-1.8 1.4-3 3.2-3 1.6 0 2.7.6 3.5 1.9l-.5.3c-.7-1.1-1.6-1.6-3-1.6-1.5 0-2.6 1-2.6 2.4 0 1.5.8 2.1 2.6 2.9l1.2.6c2.2 1.1 3.2 2.1 3.2 3.9 0 2-1.5 3.3-4 3.3-2.1 0-3.6-1.1-4.4-2.6l.5-.4zm13-10.6h7.7v.6h-7.1V61h6.4v.6h-6.4v5.9h7.4v.5h-8V54.6zm15.6 6.5l-2.1 2.4V68h-.6V54.6h.6v8.1l6.8-8.1h.7l-5.1 6 5.6 7.4h-.8l-5.1-6.9zm8.2.2c0-4 3.1-6.9 6.9-6.9 3.8 0 6.9 2.9 6.9 6.9s-3.1 6.9-6.9 6.9c-3.8 0-6.9-2.9-6.9-6.9zm13.1 0c0-3.6-2.7-6.3-6.2-6.3s-6.2 2.7-6.2 6.3c0 3.6 2.7 6.3 6.2 6.3s6.2-2.7 6.2-6.3zM91.1 64h-6.6l-1.6 4h-.6l5.5-13.7h.1L93.3 68h-.7l-1.5-4zm-6.4-.5h6.1l-3.1-7.8-3 7.8zm13.8-7.6V68H98V54.3h.1l9.4 12.4V54.6h.6v13.7h-.1l-9.5-12.4zm15.9 0V68h-.6V54.3h.1l9.4 12.4V54.6h.6v13.7h-.1l-9.4-12.4zm15.2 7.7v-9h.6v8.9c0 2.6 1.6 4.1 3.8 4.1 2.2 0 3.8-1.4 3.8-4.1v-8.9h.6v9c0 3-1.9 4.6-4.4 4.6-2.5 0-4.4-1.6-4.4-4.6zm15.3 4.4h-.6V54.6h3.7c2.7 0 4.1 1.7 4.1 3.8 0 2.1-1.4 3.8-4.1 3.8h-3.1V68zm2.9-6.4c2.3 0 3.5-1.4 3.5-3.2s-1.2-3.2-3.5-3.2h-3v6.4h3zm8.8 2v-9h.6v8.9c0 2.6 1.6 4.1 3.8 4.1 2.2 0 3.8-1.4 3.8-4.1v-8.9h.6v9c0 3-1.9 4.6-4.4 4.6s-4.4-1.6-4.4-4.6zm15.3 4.4h-.6V54.6h3.8c2.7 0 4.1 1.7 4.1 3.8 0 1.8-1.1 3.3-3.2 3.6l3.8 6h-.8l-3.7-5.9h-3.5V68zm3-6.5c2.3 0 3.5-1.3 3.5-3.2 0-1.8-1.2-3.2-3.5-3.2h-3.1v6.4h3.1zm9.5-6.9h.6V68h-.6V54.6z" class="st0"/>
</svg>
